<mxfile host="app.diagrams.net" modified="2022-09-16T12:17:59.117Z" agent="5.0 (Windows NT 10.0; Win64; x64) AppleWebKit/537.36 (KHTML, like Gecko) Chrome/105.0.0.0 Safari/537.36" etag="ilzpd0ktYi2uSVkDfVPQ" version="20.3.0" type="github">
  <diagram id="5D2FDDrmwDNojr3jzRh-" name="Page-1">
    <mxGraphModel dx="2246" dy="794" grid="1" gridSize="10" guides="1" tooltips="1" connect="1" arrows="1" fold="1" page="1" pageScale="1" pageWidth="827" pageHeight="1169" math="0" shadow="0">
      <root>
        <mxCell id="0" />
        <mxCell id="1" parent="0" />
        <mxCell id="BTLLD2VZOcGwAXrOj_Lb-1" value="" style="rounded=0;whiteSpace=wrap;html=1;" vertex="1" parent="1">
          <mxGeometry x="190" y="130" width="910" height="420" as="geometry" />
        </mxCell>
        <mxCell id="BTLLD2VZOcGwAXrOj_Lb-2" value="" style="rounded=1;whiteSpace=wrap;html=1;" vertex="1" parent="1">
          <mxGeometry x="270" y="170" width="170" height="100" as="geometry" />
        </mxCell>
        <mxCell id="BTLLD2VZOcGwAXrOj_Lb-3" value="" style="rounded=1;whiteSpace=wrap;html=1;" vertex="1" parent="1">
          <mxGeometry x="520" y="170" width="170" height="100" as="geometry" />
        </mxCell>
        <mxCell id="BTLLD2VZOcGwAXrOj_Lb-4" value="" style="rounded=1;whiteSpace=wrap;html=1;" vertex="1" parent="1">
          <mxGeometry x="770" y="170" width="170" height="100" as="geometry" />
        </mxCell>
        <mxCell id="BTLLD2VZOcGwAXrOj_Lb-5" value="&lt;font style=&quot;&quot;&gt;&lt;font style=&quot;&quot;&gt;&lt;font style=&quot;font-size: 24px;&quot;&gt;alimenter&lt;/font&gt;&lt;br&gt;(piles, bateries,...)&lt;/font&gt;&lt;br&gt;&lt;/font&gt;" style="rounded=1;whiteSpace=wrap;html=1;" vertex="1" parent="1">
          <mxGeometry x="230" y="390" width="170" height="100" as="geometry" />
        </mxCell>
        <mxCell id="BTLLD2VZOcGwAXrOj_Lb-6" value="&lt;font style=&quot;&quot;&gt;&lt;font style=&quot;font-size: 24px;&quot;&gt;distribuer&lt;/font&gt;&lt;br&gt;&lt;font style=&quot;font-size: 12px;&quot;&gt;(&lt;/font&gt;&lt;/font&gt;&lt;font style=&quot;&quot;&gt;&lt;font style=&quot;font-size: 12px;&quot;&gt;relais, &lt;font style=&quot;&quot;&gt;cartes &lt;font style=&quot;&quot;&gt;électronique&lt;/font&gt;,...)&lt;/font&gt;&lt;/font&gt;&lt;br&gt;&lt;/font&gt;" style="rounded=1;whiteSpace=wrap;html=1;" vertex="1" parent="1">
          <mxGeometry x="450" y="390" width="170" height="100" as="geometry" />
        </mxCell>
        <mxCell id="BTLLD2VZOcGwAXrOj_Lb-7" value="&lt;font style=&quot;&quot;&gt;&lt;span style=&quot;font-size: 24px;&quot;&gt;convertir&lt;/span&gt;&lt;br&gt;(moteur, vérin hydraulique,...)&lt;br&gt;&lt;/font&gt;" style="rounded=1;whiteSpace=wrap;html=1;" vertex="1" parent="1">
          <mxGeometry x="670" y="390" width="170" height="100" as="geometry" />
        </mxCell>
        <mxCell id="BTLLD2VZOcGwAXrOj_Lb-8" value="&lt;font style=&quot;&quot;&gt;&lt;span style=&quot;font-size: 24px;&quot;&gt;transmettre&lt;/span&gt;&lt;br&gt;&lt;font style=&quot;font-size: 12px;&quot;&gt;(crémaillère, engrenage,...)&lt;/font&gt;&lt;/font&gt;&lt;font style=&quot;font-size: 24px;&quot;&gt;&amp;nbsp;&lt;br&gt;&lt;/font&gt;" style="rounded=1;whiteSpace=wrap;html=1;" vertex="1" parent="1">
          <mxGeometry x="890" y="390" width="170" height="100" as="geometry" />
        </mxCell>
        <mxCell id="BTLLD2VZOcGwAXrOj_Lb-9" value="" style="shape=flexArrow;endArrow=classic;html=1;rounded=0;fontSize=12;exitX=1;exitY=0.5;exitDx=0;exitDy=0;" edge="1" parent="1" source="BTLLD2VZOcGwAXrOj_Lb-8">
          <mxGeometry width="50" height="50" relative="1" as="geometry">
            <mxPoint x="1060" y="450" as="sourcePoint" />
            <mxPoint x="1160" y="440" as="targetPoint" />
            <Array as="points" />
          </mxGeometry>
        </mxCell>
        <mxCell id="BTLLD2VZOcGwAXrOj_Lb-10" value="&lt;font style=&quot;font-size: 24px;&quot;&gt;agir&lt;br&gt;&lt;br&gt;&lt;/font&gt;" style="text;html=1;align=center;verticalAlign=middle;resizable=0;points=[];autosize=1;strokeColor=none;fillColor=none;fontSize=12;" vertex="1" parent="1">
          <mxGeometry x="1191" y="405" width="60" height="70" as="geometry" />
        </mxCell>
        <mxCell id="BTLLD2VZOcGwAXrOj_Lb-11" value="utilisateur&amp;nbsp;&lt;br&gt;&lt;span style=&quot;font-size: 12px;&quot;&gt;met de l&#39;eau dans le récipient&amp;nbsp;et appui&lt;br&gt;sur bouton ON&lt;br&gt;&lt;/span&gt;" style="shape=umlActor;verticalLabelPosition=bottom;verticalAlign=top;html=1;outlineConnect=0;fontSize=24;strokeWidth=5;" vertex="1" parent="1">
          <mxGeometry x="70" y="180" width="30" height="60" as="geometry" />
        </mxCell>
        <mxCell id="BTLLD2VZOcGwAXrOj_Lb-12" value="aquerir&amp;nbsp;" style="text;html=1;strokeColor=none;fillColor=none;align=center;verticalAlign=middle;whiteSpace=wrap;rounded=0;strokeWidth=5;fontSize=12;" vertex="1" parent="1">
          <mxGeometry x="320" y="170" width="60" height="30" as="geometry" />
        </mxCell>
      </root>
    </mxGraphModel>
  </diagram>
</mxfile>
